<?xml version="1.0" standalone="no"?>
<!DOCTYPE svg PUBLIC "-//W3C//DTD SVG 20010904//EN"
 "http://www.w3.org/TR/2001/REC-SVG-20010904/DTD/svg10.dtd">
<svg version="1.0" xmlns="http://www.w3.org/2000/svg"
 width="500.000000pt" height="500.000000pt" viewBox="0 0 500.000000 500.000000"
 preserveAspectRatio="xMidYMid meet">

<g transform="translate(0.000000,500.000000) scale(0.100000,-0.100000)"
fill="#000000" stroke="none">
<path d="M0 2500 l0 -2500 2500 0 2500 0 0 2500 0 2500 -2500 0 -2500 0 0
-2500z m2588 1543 l112 -6 0 -34 0 -33 -105 0 c-88 0 -107 -3 -112 -16 -10
-25 16 -34 105 -34 l83 0 -3 -27 -3 -27 -92 3 -93 3 0 -26 0 -25 118 -3 117
-3 0 -35 0 -35 -52 0 c-29 1 -109 2 -178 3 l-125 2 0 150 0 150 58 0 c31 0
108 -3 170 -7z m322 -46 c47 -14 118 -35 158 -47 70 -20 72 -22 66 -48 -10
-41 -16 -43 -69 -27 -27 8 -53 11 -56 7 -4 -4 -19 -51 -34 -104 -15 -54 -33
-98 -39 -98 -25 0 -100 28 -103 37 -2 6 9 55 26 109 l29 99 -51 16 c-28 9 -53
21 -54 26 -6 18 17 65 30 60 6 -2 50 -16 97 -30z m-930 -152 c19 -58 37 -105
40 -105 3 0 52 15 108 34 l101 34 11 -35 c7 -19 10 -36 8 -37 -15 -14 -322
-106 -328 -100 -14 16 -92 265 -85 272 6 6 91 39 106 41 3 1 20 -46 39 -104z
m1349 -21 c2 -2 -11 -26 -29 -54 -18 -28 -31 -52 -29 -53 79 -52 120 -77 126
-77 5 0 21 20 36 45 16 25 31 45 35 45 3 0 27 -14 54 -31 29 -19 45 -36 41
-43 -37 -62 -154 -236 -158 -236 -3 0 -27 15 -54 33 l-48 32 32 50 32 50 -64
43 c-36 24 -66 42 -67 40 -2 -2 -17 -24 -35 -50 l-32 -48 -49 33 c-27 17 -50
35 -50 38 0 3 36 60 80 128 l80 122 47 -32 c27 -18 50 -34 52 -35z m-1569 -20
c0 -6 -38 -37 -85 -69 -47 -32 -85 -62 -85 -66 0 -3 7 -12 15 -19 12 -10 26
-4 77 32 87 62 84 61 101 34 16 -23 15 -25 -26 -51 -95 -62 -108 -75 -97 -95
10 -19 17 -16 108 45 l97 65 17 -22 c10 -13 18 -27 18 -33 0 -5 -65 -54 -144
-107 l-144 -98 -35 48 c-19 26 -57 81 -84 122 l-51 76 142 96 141 96 17 -21
c10 -12 18 -27 18 -33z m-323 -360 l60 -152 -38 -44 -38 -45 -138 23 c-202 34
-195 32 -181 53 7 10 25 32 39 49 l26 30 112 -28 c61 -15 111 -26 111 -24 0 3
-23 50 -50 105 l-51 100 38 49 c21 26 41 45 44 42 3 -4 33 -75 66 -158z m2245
99 c21 -20 38 -40 38 -44 0 -3 -46 -52 -102 -107 l-103 -101 -45 45 -45 46
105 99 c58 54 107 99 110 99 2 0 21 -17 42 -37z m-932 -2 c392 -89 714 -384
833 -766 42 -134 50 -206 44 -385 -4 -136 -9 -181 -30 -256 -187 -664 -909
-1011 -1543 -741 -351 149 -619 496 -674 875 -18 118 -8 335 19 435 55 208
147 371 291 517 185 187 418 306 665 339 99 14 295 5 395 -18z m1059 -175 c72
-38 141 -157 141 -243 0 -44 -5 -58 -31 -88 -36 -41 -92 -60 -144 -51 -76 15
-178 159 -178 251 0 107 117 180 212 131z m-2484 -283 c-4 -10 -14 -37 -22
-60 -12 -34 -20 -43 -39 -43 -27 0 -34 -11 -70 -110 -24 -69 -25 -73 -8 -91
17 -18 17 -22 1 -73 -9 -29 -17 -80 -17 -114 0 -59 -1 -61 -30 -67 -42 -9 -60
-40 -60 -102 l0 -53 46 0 47 0 -7 -37 c-3 -21 -6 -48 -6 -60 0 -23 -1 -23
-143 -23 -79 0 -146 2 -148 4 -2 2 -1 73 2 158 6 172 19 217 69 238 37 16 85
5 108 -25 18 -23 19 -23 35 -4 9 10 25 19 35 19 10 0 21 3 25 6 3 4 -39 65
-94 137 -107 140 -106 137 -74 213 12 29 19 33 91 49 44 9 113 25 154 35 101
24 114 24 105 3z m2754 -231 c53 -217 36 -292 -65 -292 -58 0 -88 42 -123 170
-11 40 -22 74 -24 76 -2 2 -19 -1 -37 -6 -19 -5 -37 -6 -41 -2 -10 12 -30 104
-24 111 6 6 247 68 272 70 6 1 24 -52 42 -127z m61 -417 l0 -65 -150 0 -150 0
0 60 0 59 108 4 c59 1 126 4 150 5 l42 2 0 -65z m-146 -204 l119 -119 -11 -58
c-7 -31 -13 -58 -14 -59 -12 -10 -320 -116 -324 -112 -3 3 0 30 7 61 10 47 16
56 39 61 24 5 28 13 47 98 21 92 21 92 1 114 -18 19 -19 26 -8 77 6 31 15 56
18 56 4 0 61 -54 126 -119z m-3012 -156 c3 -4 50 5 103 19 53 14 100 26 105
26 4 0 13 -20 19 -44 6 -24 13 -50 16 -58 5 -12 -17 -21 -97 -42 -57 -16 -106
-30 -110 -32 -4 -3 0 -27 8 -55 9 -28 13 -53 11 -55 -2 -3 -18 -9 -35 -13 -25
-8 -32 -6 -36 7 -14 47 -86 321 -86 326 0 3 15 9 33 14 32 9 32 8 47 -39 9
-26 18 -51 22 -54z"/>
<path d="M2280 3525 c-30 -8 -75 -23 -100 -34 -43 -20 -44 -21 -15 -21 17 0
59 -7 95 -14 l65 -14 30 28 c17 15 46 37 65 49 l35 21 -60 -1 c-33 0 -85 -7
-115 -14z"/>
<path d="M2465 3520 c-27 -11 -67 -34 -89 -51 l-38 -32 60 -23 c86 -32 108
-32 194 4 42 17 100 37 129 43 l53 12 -49 19 c-65 26 -153 48 -185 47 -14 0
-47 -9 -75 -19z"/>
<path d="M2730 3509 c73 -34 89 -39 95 -30 3 5 -23 19 -57 30 -79 27 -96 27
-38 0z"/>
<path d="M2856 3451 c47 -42 128 -92 147 -89 18 3 9 12 -48 51 -38 26 -79 47
-89 47 -12 0 -16 -3 -10 -9z"/>
<path d="M2042 3415 c-28 -20 -52 -37 -52 -39 0 -2 26 3 58 10 31 8 101 17
155 20 54 4 100 10 102 15 7 11 -87 29 -153 29 -49 0 -65 -5 -110 -35z"/>
<path d="M2690 3436 c-25 -7 -67 -23 -95 -35 l-50 -23 101 -33 c56 -18 121
-43 144 -55 l42 -22 32 30 c17 16 44 36 59 44 l29 14 -34 25 c-95 72 -134 81
-228 55z"/>
<path d="M2960 3437 c0 -10 110 -85 140 -95 48 -17 48 -8 -2 28 -59 43 -138
82 -138 67z"/>
<path d="M1950 3399 c-53 -29 -104 -69 -97 -76 8 -8 95 40 132 72 49 43 37 44
-35 4z"/>
<path d="M2328 3413 c7 -3 16 -2 19 1 4 3 -2 6 -13 5 -11 0 -14 -3 -6 -6z"/>
<path d="M2095 3375 c-133 -24 -153 -34 -208 -99 -55 -67 -117 -159 -117 -176
0 -6 24 -10 56 -10 37 0 88 -11 146 -31 57 -19 99 -28 116 -24 28 6 122 103
122 126 0 27 34 146 51 181 11 21 19 40 19 43 0 9 -113 4 -185 -10z"/>
<path d="M2283 3354 c-23 -42 -53 -136 -53 -167 0 -15 14 -7 63 36 34 30 88
73 120 95 52 36 56 42 39 51 -10 6 -48 13 -83 17 l-64 6 -22 -38z"/>
<path d="M2568 3321 c33 -22 95 -70 137 -106 42 -37 78 -65 79 -63 1 1 8 21
15 43 7 22 15 45 17 52 6 14 -55 42 -177 84 -124 42 -147 38 -71 -10z"/>
<path d="M2425 3306 c-28 -18 -85 -64 -127 -100 -73 -62 -78 -69 -78 -106 l0
-40 88 7 c107 10 360 10 425 0 l47 -7 0 34 c0 31 -9 42 -77 101 -88 75 -190
145 -213 145 -8 0 -38 -15 -65 -34z"/>
<path d="M2925 3326 c-16 -8 -41 -24 -54 -37 -20 -19 -22 -24 -10 -31 12 -7
106 -66 204 -127 19 -12 27 -12 53 -2 l32 13 -22 31 c-36 50 -149 167 -162
167 -6 -1 -24 -7 -41 -14z"/>
<path d="M3061 3278 c33 -35 70 -78 82 -96 18 -27 27 -31 47 -26 14 3 27 8 30
10 2 3 -34 43 -81 90 -63 61 -93 84 -112 84 -24 0 -22 -4 34 -62z"/>
<path d="M1854 3298 c-26 -13 -50 -36 -63 -59 -21 -37 -63 -149 -56 -149 2 0
17 24 33 54 17 29 54 81 82 115 28 33 49 61 48 60 -2 0 -22 -10 -44 -21z"/>
<path d="M3160 3266 c30 -31 56 -56 58 -56 2 0 -7 17 -18 39 -14 23 -37 45
-59 55 -36 17 -35 17 19 -38z"/>
<path d="M3220 3255 c0 -3 9 -24 21 -46 14 -28 25 -39 35 -35 9 3 20 6 25 6 6
0 8 4 4 9 -8 14 -85 74 -85 66z"/>
<path d="M1699 3191 c-36 -32 -84 -87 -108 -121 l-44 -63 47 28 c26 15 64 34
84 40 31 11 38 20 57 76 13 35 26 72 30 82 11 27 3 21 -66 -42z"/>
<path d="M2816 3203 c-23 -67 -21 -76 29 -122 54 -50 75 -51 157 -10 l62 31
-27 24 c-25 21 -192 124 -201 124 -2 0 -11 -21 -20 -47z"/>
<path d="M3267 3147 c83 -132 93 -138 108 -69 10 47 -23 82 -77 82 -29 0 -37
-3 -31 -13z"/>
<path d="M3198 3143 c-20 -5 -23 -14 -8 -29 6 -6 29 -44 51 -85 l40 -74 -5 57
c-11 111 -31 144 -78 131z"/>
<path d="M3122 3117 c-22 -13 -21 -14 53 -83 41 -38 75 -67 75 -64 0 12 -86
154 -95 156 -5 2 -20 -2 -33 -9z"/>
<path d="M2176 3090 c-29 -35 -29 -35 -6 -38 30 -5 42 9 38 44 l-3 28 -29 -34z"/>
<path d="M2790 3088 c0 -19 6 -27 25 -30 14 -3 25 -2 25 2 0 3 -11 17 -25 30
l-25 23 0 -25z"/>
<path d="M3011 3061 l-54 -28 88 -27 c48 -15 113 -39 143 -52 30 -13 57 -23
59 -20 6 6 -158 156 -170 156 -7 -1 -36 -14 -66 -29z"/>
<path d="M3285 3070 c3 -14 9 -52 13 -85 l8 -60 19 37 18 37 -32 48 c-22 34
-30 41 -26 23z"/>
<path d="M3382 3044 c-12 -43 -11 -49 13 -89 21 -37 31 -44 66 -50 22 -4 42
-5 45 -3 4 5 -89 165 -104 180 -5 5 -13 -13 -20 -38z"/>
<path d="M1738 3044 c-16 -37 -35 -144 -26 -144 3 0 45 17 94 39 49 21 116 47
149 57 33 10 64 21 68 24 14 12 -125 51 -198 57 l-71 6 -16 -39z"/>
<path d="M1653 3050 c-70 -31 -138 -102 -157 -163 -15 -48 -36 -155 -36 -185
0 -7 21 9 48 36 26 26 67 63 92 81 40 29 48 42 77 124 32 93 39 127 26 127 -5
0 -27 -9 -50 -20z"/>
<path d="M2295 3053 c-80 -10 -78 -8 -72 -73 l6 -58 108 -107 c69 -68 112
-104 119 -98 6 4 76 54 155 110 79 56 151 108 160 115 12 10 15 25 12 59 l-5
47 -45 6 c-47 6 -385 6 -438 -1z"/>
<path d="M2790 3035 c0 -7 3 -26 6 -43 l6 -31 39 22 c42 24 45 29 27 45 -20
15 -78 20 -78 7z"/>
<path d="M2145 3031 c-46 -10 -41 -32 15 -69 l50 -32 0 55 c0 60 -1 60 -65 46z"/>
<path d="M2918 3014 c-6 -6 13 -36 88 -138 l20 -28 105 22 c57 13 111 25 119
27 18 6 -76 51 -184 87 -89 30 -139 40 -148 30z"/>
<path d="M1955 2980 c-49 -17 -124 -47 -165 -67 l-75 -38 3 -65 c2 -36 12
-110 23 -165 14 -77 24 -104 41 -118 22 -18 23 -18 32 5 36 91 129 265 190
357 41 60 71 112 68 115 -9 10 -23 7 -117 -24z"/>
<path d="M2847 2970 l-46 -29 14 -48 c9 -26 18 -58 21 -70 3 -13 11 -23 16
-23 20 0 148 42 148 48 0 4 -24 40 -53 79 l-53 73 -47 -30z"/>
<path d="M2033 2903 c-76 -112 -116 -184 -169 -301 l-43 -95 57 -42 57 -42
115 57 c63 31 145 70 183 86 37 15 67 32 67 36 0 4 -13 46 -29 95 -16 48 -35
116 -42 151 -11 61 -13 64 -70 103 -32 21 -60 39 -62 39 -3 0 -32 -39 -64 -87z"/>
<path d="M3331 2938 l-23 -41 23 6 c13 4 34 7 46 7 l22 0 -20 35 c-12 19 -22
35 -22 35 -1 0 -13 -19 -26 -42z"/>
<path d="M2715 2888 c-33 -23 -107 -75 -163 -116 -88 -63 -102 -77 -90 -88 12
-12 33 -7 143 32 72 25 151 52 178 60 26 8 47 18 47 22 -1 20 -39 126 -46 129
-5 1 -36 -17 -69 -39z"/>
<path d="M1681 2913 c0 -6 -4 -20 -7 -30 -5 -14 -4 -15 5 -7 7 7 11 20 8 30
-3 11 -5 14 -6 7z"/>
<path d="M2243 2849 c8 -60 65 -239 76 -239 5 0 14 7 21 15 7 9 20 13 29 11 9
-3 34 3 56 13 33 15 37 20 22 26 -12 5 -25 1 -41 -14 -12 -11 -26 -21 -32 -21
-5 1 6 14 25 30 l34 29 -46 51 c-25 28 -69 72 -98 98 l-52 47 6 -46z"/>
<path d="M3152 2865 c-63 -13 -115 -25 -117 -27 -2 -2 15 -36 38 -77 l42 -73
50 55 c58 64 120 147 108 146 -4 0 -59 -11 -121 -24z"/>
<path d="M3344 2877 c10 -7 38 -27 62 -45 24 -18 44 -30 44 -27 0 3 -9 24 -20
45 -19 37 -23 40 -63 39 -36 0 -39 -2 -23 -12z"/>
<path d="M3463 2824 l32 -65 22 26 c13 14 23 33 23 41 0 26 -47 64 -79 64
l-31 0 33 -66z"/>
<path d="M1671 2846 c-14 -16 -37 -125 -46 -216 l-7 -65 59 -11 c32 -6 60 -10
61 -8 2 1 -4 38 -13 81 -8 43 -19 113 -22 156 -6 78 -11 88 -32 63z"/>
<path d="M3210 2775 c-36 -43 -69 -83 -74 -90 -10 -13 37 -139 55 -150 16 -11
50 21 59 55 16 65 32 185 28 224 l-3 39 -65 -78z"/>
<path d="M3386 2783 c24 -36 45 -71 48 -77 2 -7 13 -2 27 11 22 22 23 23 4 43
-20 23 -109 90 -118 90 -3 0 15 -30 39 -67z"/>
<path d="M3301 2805 c-1 -22 -8 -80 -17 -129 -8 -48 -14 -90 -12 -92 2 -1 23
9 46 24 39 25 41 29 36 62 -4 19 -17 67 -29 105 -22 68 -23 69 -24 30z"/>
<path d="M2931 2810 c-35 -11 -66 -22 -70 -25 -7 -8 72 -161 104 -200 l25 -30
55 55 c30 30 55 59 55 64 0 19 -84 156 -94 155 -6 0 -40 -9 -75 -19z"/>
<path d="M3333 2820 c3 -8 13 -48 23 -87 17 -72 30 -86 53 -59 10 11 9 21 -3
43 -21 40 -79 121 -73 103z"/>
<path d="M1539 2741 c-86 -87 -88 -92 -73 -204 l7 -46 33 25 c18 14 45 29 61
33 27 7 28 11 44 117 9 60 19 119 23 132 13 40 -13 24 -95 -57z"/>
<path d="M3527 2772 c-23 -25 -21 -31 14 -72 l31 -35 -7 50 c-10 69 -17 80
-38 57z"/>
<path d="M1441 2764 c0 -11 3 -14 6 -6 3 7 2 16 -1 19 -3 4 -6 -2 -5 -13z"/>
<path d="M2795 2769 c-16 -6 -94 -33 -172 -61 l-141 -50 60 -91 c33 -51 80
-132 104 -181 24 -49 46 -91 49 -94 5 -5 101 77 211 181 l72 68 -46 68 c-26
37 -58 91 -71 119 -14 29 -27 52 -30 51 -3 0 -19 -5 -36 -10z"/>
<path d="M1433 2690 c0 -25 2 -35 4 -22 2 12 2 32 0 45 -2 12 -4 2 -4 -23z"/>
<path d="M3466 2701 c-18 -20 -18 -22 6 -78 14 -32 34 -83 43 -113 21 -66 31
-79 40 -51 6 21 -26 158 -54 224 -16 39 -16 39 -35 18z"/>
<path d="M3525 2673 c3 -10 13 -44 22 -75 9 -32 20 -55 25 -52 16 10 8 58 -17
101 -26 43 -43 58 -30 26z"/>
<path d="M3402 2652 c-22 -17 -23 -21 -13 -82 6 -36 11 -104 11 -152 0 -73 3
-88 16 -88 21 0 54 18 86 47 l26 25 -19 70 c-17 62 -73 198 -81 198 -2 0 -13
-8 -26 -18z"/>
<path d="M2390 2620 c-41 -17 -64 -32 -62 -41 14 -63 189 -359 212 -359 19 0
140 54 140 63 0 37 -190 357 -215 363 -5 1 -39 -10 -75 -26z"/>
<path d="M3050 2595 l-54 -55 39 -40 38 -39 49 26 c26 14 48 32 48 39 0 17
-52 124 -60 124 -3 0 -30 -25 -60 -55z"/>
<path d="M3308 2587 c-42 -29 -49 -39 -64 -94 -14 -53 -15 -69 -4 -107 11 -40
16 -45 55 -56 23 -6 53 -10 66 -8 23 3 24 6 22 78 -3 107 -14 220 -21 219 -4
0 -28 -15 -54 -32z"/>
<path d="M1427 2594 c-6 -6 0 -87 9 -134 5 -20 7 -22 14 -9 6 10 5 42 -1 80
-11 68 -12 72 -22 63z"/>
<path d="M2240 2524 c-81 -71 -210 -192 -210 -199 0 -2 17 -28 38 -58 20 -29
50 -81 66 -115 16 -34 36 -62 43 -62 16 0 325 109 335 118 4 4 -17 43 -46 88
-30 44 -77 126 -106 182 -28 56 -52 102 -53 102 -1 0 -31 -25 -67 -56z"/>
<path d="M2195 2536 c-157 -73 -245 -118 -245 -125 0 -4 16 -22 35 -41 l35
-34 72 70 c40 38 98 91 128 117 30 26 52 47 50 47 -3 -1 -36 -16 -75 -34z"/>
<path d="M1620 2468 c0 -82 14 -205 24 -215 3 -3 26 10 53 29 40 29 50 42 64
92 16 51 16 63 3 106 -13 45 -17 48 -58 59 -86 21 -86 22 -86 -71z"/>
<path d="M3587 2503 c-6 -48 4 -137 16 -150 4 -3 7 34 7 83 0 102 -14 142 -23
67z"/>
<path d="M1537 2519 c-54 -29 -63 -54 -42 -124 20 -69 75 -195 85 -195 4 0 15
9 25 19 15 18 16 28 6 102 -6 45 -11 113 -11 151 0 76 -3 79 -63 47z"/>
<path d="M3216 2527 c-13 -10 -16 -20 -11 -36 8 -27 13 -24 25 18 10 36 10 35
-14 18z"/>
<path d="M1397 2510 c-9 -33 -8 -150 2 -175 14 -34 23 61 14 135 -7 51 -10 59
-16 40z"/>
<path d="M2940 2487 c-25 -23 -81 -75 -125 -115 l-80 -73 75 34 c41 19 114 54
163 78 l87 44 -37 37 -38 37 -45 -42z"/>
<path d="M1777 2489 c4 -13 9 -17 15 -11 11 11 3 32 -12 32 -4 0 -6 -9 -3 -21z"/>
<path d="M3128 2478 c-21 -12 -38 -25 -38 -28 0 -9 90 -73 95 -68 15 15 21 56
12 85 -12 39 -19 40 -69 11z"/>
<path d="M1805 2457 c-4 -19 -1 -47 7 -65 l13 -32 49 29 49 29 -49 36 c-27 19
-52 36 -56 36 -4 0 -10 -15 -13 -33z"/>
<path d="M3005 2413 c-27 -15 -106 -53 -175 -84 -69 -32 -125 -61 -125 -66 1
-4 13 -46 28 -93 15 -47 33 -114 41 -150 12 -63 14 -65 71 -104 l58 -40 29 35
c66 78 219 354 242 434 4 16 -7 28 -49 58 -30 20 -57 37 -62 37 -4 -1 -30 -13
-58 -27z"/>
<path d="M1451 2413 c-7 -14 -6 -36 5 -79 22 -85 55 -184 62 -184 3 0 13 7 23
16 17 16 17 18 -1 55 -11 21 -33 77 -49 125 -25 73 -31 83 -40 67z"/>
<path d="M3557 2423 c-10 -17 3 -164 14 -157 11 6 11 73 1 129 -5 25 -10 35
-15 28z"/>
<path d="M1776 2377 c-11 -40 -8 -49 13 -37 13 6 17 17 14 30 -8 30 -20 33
-27 7z"/>
<path d="M1877 2376 c-20 -12 -39 -25 -42 -28 -3 -3 8 -36 25 -73 l31 -69 54
54 c30 30 55 59 55 65 0 14 -62 75 -75 75 -6 0 -27 -11 -48 -24z"/>
<path d="M3207 2387 c-3 -9 1 -21 9 -27 11 -10 14 -10 14 1 0 8 -4 20 -9 27
-7 11 -9 11 -14 -1z"/>
<path d="M3506 2361 c-10 -11 -38 -28 -62 -37 -39 -15 -44 -20 -44 -48 0 -17
-7 -73 -15 -125 -9 -52 -14 -96 -12 -98 7 -7 100 75 134 118 30 38 33 48 32
108 0 36 -4 74 -8 84 -6 17 -8 17 -25 -2z"/>
<path d="M3135 2223 c-33 -70 -93 -177 -132 -237 -40 -61 -73 -114 -73 -118 0
-4 7 -8 16 -8 27 0 195 59 272 96 l73 35 -5 42 c-3 23 -8 71 -11 107 -13 134
-38 210 -70 210 -5 0 -37 -57 -70 -127z"/>
<path d="M1431 2298 c-1 -31 6 -59 20 -83 12 -20 23 -34 25 -32 2 2 -7 39 -20
83 l-25 79 0 -47z"/>
<path d="M1778 2317 c-21 -20 -28 -41 -43 -138 -9 -63 -15 -126 -13 -141 3
-24 9 -19 80 67 l77 94 -32 70 c-18 39 -35 71 -38 71 -3 0 -17 -10 -31 -23z"/>
<path d="M3264 2303 c9 -38 34 -187 41 -246 4 -30 11 -47 18 -44 16 5 44 120
53 217 l7 80 -36 0 c-20 0 -48 5 -63 10 -25 10 -26 9 -20 -17z"/>
<path d="M1958 2253 l-57 -58 40 -73 c22 -40 46 -75 54 -78 14 -6 134 24 149
37 10 9 -63 152 -102 197 l-27 33 -57 -58z"/>
<path d="M1683 2260 l-41 -30 13 -57 c8 -32 20 -76 28 -98 l14 -40 8 65 c4 36
13 93 20 128 7 34 10 62 6 62 -3 -1 -25 -14 -48 -30z"/>
<path d="M2631 2218 c-28 -23 -51 -46 -51 -52 0 -15 178 -192 185 -185 11 11
-65 279 -79 279 -2 0 -26 -19 -55 -42z"/>
<path d="M2588 2223 c-37 -15 -46 -27 -30 -37 5 -3 24 8 43 24 39 34 38 35
-13 13z"/>
<path d="M3567 2217 c-4 -10 -7 -37 -6 -60 l1 -42 9 45 c10 52 8 87 -4 57z"/>
<path d="M1597 2196 c-17 -13 -16 -18 23 -81 24 -36 44 -65 45 -63 5 5 -38
158 -44 158 -3 0 -14 -7 -24 -14z"/>
<path d="M1430 2190 c0 -25 23 -110 29 -110 4 0 13 11 21 24 11 22 9 28 -15
60 -29 38 -35 42 -35 26z"/>
<path d="M2485 2183 c-22 -8 -101 -36 -175 -63 -95 -33 -134 -52 -131 -61 2
-8 11 -40 20 -72 l17 -57 99 67 c55 38 129 90 165 117 36 27 66 50 68 51 5 4
-10 35 -17 34 -3 0 -24 -7 -46 -16z"/>
<path d="M1806 2089 c-79 -96 -88 -114 -58 -106 9 3 58 13 108 22 50 9 96 20
103 24 8 5 0 27 -28 75 -21 37 -41 70 -44 72 -3 3 -39 -36 -81 -87z"/>
<path d="M3490 2125 c-30 -31 -71 -67 -91 -81 -30 -20 -42 -40 -64 -102 -38
-105 -46 -142 -31 -142 29 0 118 55 155 95 44 48 66 108 79 218 5 37 8 67 7
67 0 0 -25 -25 -55 -55z"/>
<path d="M1542 2147 l-22 -23 28 -25 c39 -37 112 -92 112 -85 0 3 -22 39 -48
80 l-49 76 -21 -23z"/>
<path d="M2505 2119 c-27 -21 -103 -75 -167 -120 -116 -79 -118 -81 -118 -119
0 -21 7 -45 15 -53 28 -28 327 -34 503 -10 l44 6 -4 61 -4 61 -109 108 c-60
59 -109 107 -109 106 -1 0 -23 -18 -51 -40z"/>
<path d="M1486 2085 c-23 -35 -20 -72 7 -89 22 -14 77 -30 77 -23 0 8 -60 137
-64 137 -2 0 -11 -11 -20 -25z"/>
<path d="M1574 2022 c24 -48 29 -52 61 -52 40 0 45 14 13 31 -13 7 -40 25 -61
42 l-39 30 26 -51z"/>
<path d="M2072 2046 l-73 -22 50 -71 c28 -39 54 -74 59 -77 10 -6 92 42 92 54
0 19 -41 140 -48 139 -4 -1 -40 -11 -80 -23z"/>
<path d="M1910 2005 c-30 -7 -82 -19 -115 -25 l-59 -12 35 -19 c20 -10 89 -36
153 -58 110 -38 166 -50 166 -35 0 14 -106 163 -115 163 -5 -1 -35 -7 -65 -14z"/>
<path d="M3311 1963 c0 -25 1 -26 9 -8 12 27 12 35 0 35 -5 0 -10 -12 -9 -27z"/>
<path d="M1500 1964 c0 -10 69 -134 89 -160 17 -22 17 -21 32 21 16 43 15 44
-13 89 -21 34 -34 46 -52 46 -13 0 -31 3 -40 6 -9 3 -16 3 -16 -2z"/>
<path d="M3225 1943 c-27 -15 -96 -43 -152 -63 l-103 -36 63 -23 c34 -12 96
-25 139 -28 l76 -6 17 33 c19 36 33 150 19 150 -5 -1 -31 -13 -59 -27z"/>
<path d="M1610 1953 c0 -5 9 -21 19 -36 14 -22 21 -26 27 -15 4 7 14 23 22 36
14 22 13 22 -27 22 -22 0 -41 -3 -41 -7z"/>
<path d="M1676 1906 l-19 -35 32 -48 31 -48 -6 45 c-4 25 -9 62 -13 83 l-6 38
-19 -35z"/>
<path d="M1790 1895 c25 -26 66 -64 91 -86 l46 -39 63 32 63 31 -89 27 c-49
15 -107 35 -129 44 -92 40 -93 40 -45 -9z"/>
<path d="M2790 1922 c0 -9 3 -34 7 -56 6 -37 7 -38 41 -32 20 3 42 11 49 19
11 10 4 19 -42 50 -45 30 -55 34 -55 19z"/>
<path d="M1726 1865 c14 -100 28 -140 49 -143 49 -6 48 12 -5 104 l-51 89 7
-50z"/>
<path d="M1754 1897 c3 -10 24 -50 47 -88 35 -60 43 -69 62 -63 23 7 44 22 36
26 -2 2 -38 35 -78 73 -41 39 -71 62 -67 52z"/>
<path d="M2152 1878 c-27 -17 -31 -23 -20 -33 7 -7 28 -16 46 -20 l33 -7 -3
38 c-4 46 -13 50 -56 22z"/>
<path d="M1636 1828 c-11 -43 -6 -85 12 -101 17 -15 92 -25 92 -12 0 4 -84
122 -95 133 -1 1 -5 -8 -9 -20z"/>
<path d="M3411 1830 c-13 -11 -45 -28 -72 -37 -45 -16 -50 -21 -65 -68 -9 -27
-23 -63 -31 -78 -13 -27 -13 -28 5 -18 39 21 125 106 163 163 41 60 41 72 0
38z"/>
<path d="M2904 1830 c-12 -5 -41 -31 -65 -59 -35 -41 -46 -62 -57 -118 -7 -37
-24 -92 -38 -122 -13 -30 -23 -55 -22 -56 2 -1 44 2 95 6 101 8 206 32 239 54
30 19 104 109 147 176 l36 57 -62 6 c-34 4 -102 20 -150 37 -97 32 -93 31
-123 19z"/>
<path d="M2001 1796 l-65 -33 45 -32 c75 -56 178 -113 188 -106 6 3 17 29 26
58 l15 51 -42 43 c-58 58 -87 61 -167 19z"/>
<path d="M2812 1811 c-8 -4 -12 -18 -10 -30 3 -22 4 -22 32 8 26 27 27 31 10
31 -10 0 -25 -4 -32 -9z"/>
<path d="M2181 1784 c13 -14 25 -20 27 -14 7 20 -7 40 -29 40 l-22 0 24 -26z"/>
<path d="M2720 1798 c-72 -10 -371 -13 -436 -4 -50 7 -51 7 -57 -21 -6 -24 1
-35 46 -77 63 -60 199 -162 227 -171 22 -7 129 65 228 154 49 44 53 50 50 87
l-3 39 -55 -7z"/>
<path d="M3212 1693 c-28 -43 -64 -93 -79 -112 l-28 -34 42 22 c46 23 84 77
107 154 8 26 13 47 12 47 -1 0 -25 -35 -54 -77z"/>
<path d="M1883 1740 c-13 -5 -23 -12 -23 -16 0 -12 77 -107 124 -153 35 -35
49 -42 68 -38 29 8 90 48 95 63 2 5 -16 21 -39 34 -24 13 -75 45 -114 72 -75
51 -77 52 -111 38z"/>
<path d="M1801 1709 c-24 -10 -23 -12 59 -94 68 -68 90 -85 114 -85 29 0 28 1
-36 68 -35 37 -73 79 -82 95 -20 30 -21 30 -55 16z"/>
<path d="M2202 1667 c-11 -29 -17 -55 -13 -59 20 -22 301 -115 301 -100 0 4
-24 21 -54 39 -29 18 -89 63 -133 102 l-81 70 -20 -52z"/>
<path d="M2705 1639 c-38 -33 -91 -74 -117 -91 -27 -17 -48 -35 -48 -39 0 -14
73 -31 119 -27 40 3 45 6 67 48 18 35 59 172 51 169 -1 0 -33 -27 -72 -60z"/>
<path d="M1729 1649 c24 -21 46 -38 48 -35 2 2 -4 20 -13 40 -15 30 -23 36
-48 36 l-31 -1 44 -40z"/>
<path d="M1801 1622 c21 -38 73 -81 85 -70 2 2 -22 29 -53 59 l-56 54 24 -43z"/>
<path d="M2140 1565 c-13 -14 -38 -30 -57 -37 -18 -7 -33 -15 -33 -18 0 -12
145 -100 165 -100 52 0 239 65 230 80 -3 4 -26 13 -52 20 -26 6 -85 27 -130
46 -46 19 -87 34 -91 34 -5 0 -19 -11 -32 -25z"/>
<path d="M3109 1532 c-31 -15 -139 -91 -139 -99 0 -4 47 15 87 36 35 18 93 66
93 76 0 6 2 7 -41 -13z"/>
<path d="M1870 1531 c0 -19 154 -110 166 -99 2 2 -20 22 -49 43 -51 39 -117
70 -117 56z"/>
<path d="M1985 1501 c12 -21 131 -91 154 -91 18 0 11 8 -38 41 -33 22 -63 45
-66 50 -4 5 -17 9 -31 9 -14 0 -23 -4 -19 -9z"/>
<path d="M2910 1474 c-36 -7 -98 -13 -137 -14 -40 0 -73 -4 -73 -10 0 -15 70
-30 143 -30 54 0 75 5 106 25 74 46 67 51 -39 29z"/>
<path d="M2438 1460 c-20 -11 -74 -30 -119 -44 l-82 -23 55 -21 c97 -36 170
-47 220 -33 44 13 148 75 148 89 0 11 -91 41 -141 47 -32 4 -54 0 -81 -15z"/>
<path d="M2658 1453 c7 -3 16 -2 19 1 4 3 -2 6 -13 5 -11 0 -14 -3 -6 -6z"/>
<path d="M2653 1398 c-15 -15 -50 -40 -77 -54 l-51 -26 75 6 c88 8 180 30 230
56 l35 19 -40 1 c-22 0 -64 6 -92 13 -52 14 -52 14 -80 -15z"/>
<path d="M2206 1371 c22 -10 56 -22 75 -25 28 -5 24 -2 -21 18 -30 14 -64 25
-75 25 -13 0 -5 -7 21 -18z"/>
<path d="M3717 3243 c-29 -33 -26 -81 8 -117 70 -75 168 26 104 108 -25 32
-86 37 -112 9z"/>
<path d="M1092 2951 c-18 -3 -32 -10 -31 -16 2 -11 45 -65 52 -65 3 0 12 20
20 45 17 48 18 47 -41 36z"/>
<path d="M954 2519 c-3 -6 -9 -40 -12 -75 l-5 -64 37 0 36 0 0 56 c0 30 -5 64
-10 75 -12 21 -35 25 -46 8z"/>
<path d="M3958 2833 c-15 -4 -15 -9 2 -69 20 -73 31 -90 54 -81 19 8 20 38 4
106 -11 51 -17 55 -60 44z"/>
<path d="M3931 2094 c-7 -25 -10 -48 -8 -50 4 -5 69 16 80 25 4 4 -8 22 -27
40 l-33 32 -12 -47z"/>
</g>
</svg>
